# xmcd
#
# Track frame offsets:
#	150
#	12982
#	27208
#
# Disc length: 550 seconds
#
# Revision: 0
# Processed by: cddbd v1.5.2PL0 Copyright (c) Steve Scherf et al.
# Submitted via: audiograbber 1.83.01
#
DISCID=18022403
DTITLE=Maria Mathis - Sommer mit....
DYEAR=2007
DGENRE=Volksmusik
TTITLE0=Wann wird es wieder Sommer
TTITLE1=Als währ's der erste Sommer
TTITLE2=Im Sommer bleib ich daheim
EXTD=
EXTT0=
EXTT1=
EXTT2=
PLAYORDER=
